<mxfile host="app.diagrams.net" modified="2021-04-04T11:59:28.528Z" agent="5.0 (Windows NT 10.0; Win64; x64) AppleWebKit/537.36 (KHTML, like Gecko) Chrome/89.0.4389.114 Safari/537.36" etag="BPfy3e4wc6X_mWxEHe7Z" version="14.5.7" type="github">
  <diagram name="Page-1" id="74e2e168-ea6b-b213-b513-2b3c1d86103e">
    <mxGraphModel dx="3187" dy="813" grid="1" gridSize="10" guides="1" tooltips="1" connect="1" arrows="1" fold="1" page="1" pageScale="1" pageWidth="1100" pageHeight="850" background="#ffffff" math="0" shadow="0">
      <root>
        <mxCell id="0" />
        <mxCell id="1" parent="0" />
        <mxCell id="UY2LYeUdsEFokPWbuL1_-31" value="회원" style="shape=umlActor;verticalLabelPosition=bottom;verticalAlign=top;html=1;outlineConnect=0;" vertex="1" parent="1">
          <mxGeometry x="280" y="270" width="30" height="60" as="geometry" />
        </mxCell>
        <mxCell id="UY2LYeUdsEFokPWbuL1_-32" value="트레이너" style="shape=umlActor;verticalLabelPosition=bottom;verticalAlign=top;html=1;outlineConnect=0;" vertex="1" parent="1">
          <mxGeometry x="280" y="490" width="30" height="60" as="geometry" />
        </mxCell>
        <mxCell id="UY2LYeUdsEFokPWbuL1_-33" value="" style="rounded=0;whiteSpace=wrap;html=1;" vertex="1" parent="1">
          <mxGeometry x="360" y="92" width="910" height="580" as="geometry" />
        </mxCell>
        <mxCell id="UY2LYeUdsEFokPWbuL1_-37" value="회원 가입&amp;nbsp;&lt;br&gt;- 이름&lt;br&gt;- 나이&lt;br&gt;- 설별&lt;br&gt;- 주소&lt;br&gt;- 신장&lt;br&gt;-체중&lt;br&gt;- 주민등록 번호" style="shape=parallelogram;perimeter=parallelogramPerimeter;whiteSpace=wrap;html=1;fixedSize=1;" vertex="1" parent="1">
          <mxGeometry x="410" y="100" width="155" height="140" as="geometry" />
        </mxCell>
        <mxCell id="UY2LYeUdsEFokPWbuL1_-38" value="" style="endArrow=classic;html=1;entryX=0;entryY=0.25;entryDx=0;entryDy=0;" edge="1" parent="1" source="UY2LYeUdsEFokPWbuL1_-78" target="UY2LYeUdsEFokPWbuL1_-37">
          <mxGeometry width="50" height="50" relative="1" as="geometry">
            <mxPoint x="450" y="560" as="sourcePoint" />
            <mxPoint x="500" y="510" as="targetPoint" />
            <Array as="points">
              <mxPoint x="400" y="190" />
            </Array>
          </mxGeometry>
        </mxCell>
        <mxCell id="UY2LYeUdsEFokPWbuL1_-41" value="로그인" style="shape=parallelogram;perimeter=parallelogramPerimeter;whiteSpace=wrap;html=1;fixedSize=1;" vertex="1" parent="1">
          <mxGeometry x="590" y="360" width="120" height="100" as="geometry" />
        </mxCell>
        <mxCell id="UY2LYeUdsEFokPWbuL1_-47" value="운동" style="shape=hexagon;perimeter=hexagonPerimeter2;whiteSpace=wrap;html=1;fixedSize=1;" vertex="1" parent="1">
          <mxGeometry x="1090" y="340" width="120" height="80" as="geometry" />
        </mxCell>
        <mxCell id="UY2LYeUdsEFokPWbuL1_-49" value="식단 조절" style="shape=hexagon;perimeter=hexagonPerimeter2;whiteSpace=wrap;html=1;fixedSize=1;" vertex="1" parent="1">
          <mxGeometry x="900" y="340" width="120" height="80" as="geometry" />
        </mxCell>
        <mxCell id="UY2LYeUdsEFokPWbuL1_-51" value="" style="endArrow=classic;startArrow=classic;html=1;entryX=0;entryY=0.5;entryDx=0;entryDy=0;exitX=1;exitY=0.5;exitDx=0;exitDy=0;" edge="1" parent="1" source="UY2LYeUdsEFokPWbuL1_-49" target="UY2LYeUdsEFokPWbuL1_-47">
          <mxGeometry width="50" height="50" relative="1" as="geometry">
            <mxPoint x="720" y="420" as="sourcePoint" />
            <mxPoint x="770" y="370" as="targetPoint" />
          </mxGeometry>
        </mxCell>
        <mxCell id="UY2LYeUdsEFokPWbuL1_-52" value="관리자" style="shape=umlActor;verticalLabelPosition=bottom;verticalAlign=top;html=1;outlineConnect=0;" vertex="1" parent="1">
          <mxGeometry x="270" y="20" width="30" height="60" as="geometry" />
        </mxCell>
        <mxCell id="UY2LYeUdsEFokPWbuL1_-55" value="회원 가입 승인" style="shape=parallelogram;perimeter=parallelogramPerimeter;whiteSpace=wrap;html=1;fixedSize=1;" vertex="1" parent="1">
          <mxGeometry x="450" y="430" width="120" height="60" as="geometry" />
        </mxCell>
        <mxCell id="UY2LYeUdsEFokPWbuL1_-56" value="" style="endArrow=classic;html=1;exitX=0.5;exitY=0;exitDx=0;exitDy=0;" edge="1" parent="1" source="UY2LYeUdsEFokPWbuL1_-59">
          <mxGeometry width="50" height="50" relative="1" as="geometry">
            <mxPoint x="620" y="270" as="sourcePoint" />
            <mxPoint x="310" y="60" as="targetPoint" />
          </mxGeometry>
        </mxCell>
        <mxCell id="UY2LYeUdsEFokPWbuL1_-59" value="승인요청" style="text;html=1;strokeColor=none;fillColor=none;align=center;verticalAlign=middle;whiteSpace=wrap;rounded=0;" vertex="1" parent="1">
          <mxGeometry x="430" y="320" width="40" height="20" as="geometry" />
        </mxCell>
        <mxCell id="UY2LYeUdsEFokPWbuL1_-62" value="" style="endArrow=classic;html=1;exitX=0.25;exitY=0;exitDx=0;exitDy=0;" edge="1" parent="1" source="UY2LYeUdsEFokPWbuL1_-55" target="UY2LYeUdsEFokPWbuL1_-59">
          <mxGeometry width="50" height="50" relative="1" as="geometry">
            <mxPoint x="490" y="420" as="sourcePoint" />
            <mxPoint x="310" y="60" as="targetPoint" />
          </mxGeometry>
        </mxCell>
        <mxCell id="UY2LYeUdsEFokPWbuL1_-66" style="edgeStyle=orthogonalEdgeStyle;rounded=0;orthogonalLoop=1;jettySize=auto;html=1;" edge="1" parent="1" target="UY2LYeUdsEFokPWbuL1_-32">
          <mxGeometry relative="1" as="geometry">
            <mxPoint x="180" y="290" as="sourcePoint" />
            <Array as="points">
              <mxPoint x="200" y="290" />
              <mxPoint x="200" y="520" />
            </Array>
          </mxGeometry>
        </mxCell>
        <mxCell id="UY2LYeUdsEFokPWbuL1_-63" value="회원 승인&amp;nbsp;&lt;br&gt;요청" style="text;html=1;strokeColor=none;fillColor=none;align=center;verticalAlign=middle;whiteSpace=wrap;rounded=0;" vertex="1" parent="1">
          <mxGeometry x="160" y="250" width="40" height="20" as="geometry" />
        </mxCell>
        <mxCell id="UY2LYeUdsEFokPWbuL1_-64" value="" style="endArrow=classic;html=1;" edge="1" parent="1">
          <mxGeometry width="50" height="50" relative="1" as="geometry">
            <mxPoint x="260" y="70" as="sourcePoint" />
            <mxPoint x="180" y="230" as="targetPoint" />
            <Array as="points" />
          </mxGeometry>
        </mxCell>
        <mxCell id="UY2LYeUdsEFokPWbuL1_-71" value="" style="endArrow=classic;html=1;exitX=0.581;exitY=1;exitDx=0;exitDy=0;exitPerimeter=0;" edge="1" parent="1" source="UY2LYeUdsEFokPWbuL1_-37" target="UY2LYeUdsEFokPWbuL1_-55">
          <mxGeometry width="50" height="50" relative="1" as="geometry">
            <mxPoint x="560" y="290" as="sourcePoint" />
            <mxPoint x="610" y="240" as="targetPoint" />
          </mxGeometry>
        </mxCell>
        <mxCell id="UY2LYeUdsEFokPWbuL1_-72" value="" style="endArrow=classic;html=1;entryX=0;entryY=0.5;entryDx=0;entryDy=0;" edge="1" parent="1" source="UY2LYeUdsEFokPWbuL1_-31" target="UY2LYeUdsEFokPWbuL1_-41">
          <mxGeometry width="50" height="50" relative="1" as="geometry">
            <mxPoint x="560" y="290" as="sourcePoint" />
            <mxPoint x="610" y="240" as="targetPoint" />
          </mxGeometry>
        </mxCell>
        <mxCell id="UY2LYeUdsEFokPWbuL1_-73" value="" style="endArrow=classic;html=1;entryX=0;entryY=0.25;entryDx=0;entryDy=0;exitX=1;exitY=0.25;exitDx=0;exitDy=0;" edge="1" parent="1" source="UY2LYeUdsEFokPWbuL1_-41" target="UY2LYeUdsEFokPWbuL1_-49">
          <mxGeometry width="50" height="50" relative="1" as="geometry">
            <mxPoint x="560" y="290" as="sourcePoint" />
            <mxPoint x="610" y="240" as="targetPoint" />
          </mxGeometry>
        </mxCell>
        <mxCell id="UY2LYeUdsEFokPWbuL1_-74" value="회원들 정보 확인" style="shape=parallelogram;perimeter=parallelogramPerimeter;whiteSpace=wrap;html=1;fixedSize=1;" vertex="1" parent="1">
          <mxGeometry x="600" y="180" width="140" height="100" as="geometry" />
        </mxCell>
        <mxCell id="UY2LYeUdsEFokPWbuL1_-75" value="" style="endArrow=classic;html=1;entryX=0.379;entryY=-0.024;entryDx=0;entryDy=0;entryPerimeter=0;" edge="1" parent="1" source="UY2LYeUdsEFokPWbuL1_-52" target="UY2LYeUdsEFokPWbuL1_-74">
          <mxGeometry width="50" height="50" relative="1" as="geometry">
            <mxPoint x="510" y="40" as="sourcePoint" />
            <mxPoint x="610" y="240" as="targetPoint" />
            <Array as="points">
              <mxPoint x="640" y="40" />
            </Array>
          </mxGeometry>
        </mxCell>
        <mxCell id="UY2LYeUdsEFokPWbuL1_-76" value="" style="endArrow=classic;html=1;entryX=0.367;entryY=1.016;entryDx=0;entryDy=0;entryPerimeter=0;" edge="1" parent="1" target="UY2LYeUdsEFokPWbuL1_-74">
          <mxGeometry width="50" height="50" relative="1" as="geometry">
            <mxPoint x="300" y="580" as="sourcePoint" />
            <mxPoint x="610" y="350" as="targetPoint" />
            <Array as="points">
              <mxPoint x="300" y="711" />
              <mxPoint x="520" y="711" />
            </Array>
          </mxGeometry>
        </mxCell>
        <mxCell id="UY2LYeUdsEFokPWbuL1_-77" value="" style="endArrow=none;dashed=1;html=1;entryX=0.5;entryY=1;entryDx=0;entryDy=0;" edge="1" parent="1" source="UY2LYeUdsEFokPWbuL1_-85" target="UY2LYeUdsEFokPWbuL1_-49">
          <mxGeometry width="50" height="50" relative="1" as="geometry">
            <mxPoint x="320" y="530" as="sourcePoint" />
            <mxPoint x="1340" y="520" as="targetPoint" />
            <Array as="points">
              <mxPoint x="990" y="550" />
            </Array>
          </mxGeometry>
        </mxCell>
        <mxCell id="UY2LYeUdsEFokPWbuL1_-78" value="한 번만" style="text;html=1;strokeColor=none;fillColor=none;align=center;verticalAlign=middle;whiteSpace=wrap;rounded=0;" vertex="1" parent="1">
          <mxGeometry x="380" y="250" width="40" height="20" as="geometry" />
        </mxCell>
        <mxCell id="UY2LYeUdsEFokPWbuL1_-81" value="" style="endArrow=classic;html=1;entryX=0;entryY=0.25;entryDx=0;entryDy=0;" edge="1" parent="1" source="UY2LYeUdsEFokPWbuL1_-31" target="UY2LYeUdsEFokPWbuL1_-78">
          <mxGeometry width="50" height="50" relative="1" as="geometry">
            <mxPoint x="310" y="298.2352941176471" as="sourcePoint" />
            <mxPoint x="424.090909090909" y="141.36363636363632" as="targetPoint" />
            <Array as="points" />
          </mxGeometry>
        </mxCell>
        <mxCell id="UY2LYeUdsEFokPWbuL1_-82" value="" style="endArrow=classic;html=1;" edge="1" parent="1" source="UY2LYeUdsEFokPWbuL1_-83">
          <mxGeometry width="50" height="50" relative="1" as="geometry">
            <mxPoint x="295" y="470" as="sourcePoint" />
            <mxPoint x="295" y="360" as="targetPoint" />
          </mxGeometry>
        </mxCell>
        <mxCell id="UY2LYeUdsEFokPWbuL1_-83" value="조언" style="text;html=1;strokeColor=none;fillColor=none;align=center;verticalAlign=middle;whiteSpace=wrap;rounded=0;" vertex="1" parent="1">
          <mxGeometry x="280" y="400" width="40" height="20" as="geometry" />
        </mxCell>
        <mxCell id="UY2LYeUdsEFokPWbuL1_-84" value="" style="endArrow=classic;html=1;" edge="1" parent="1" target="UY2LYeUdsEFokPWbuL1_-83">
          <mxGeometry width="50" height="50" relative="1" as="geometry">
            <mxPoint x="295" y="470" as="sourcePoint" />
            <mxPoint x="295" y="360" as="targetPoint" />
          </mxGeometry>
        </mxCell>
        <mxCell id="UY2LYeUdsEFokPWbuL1_-85" value="조언" style="text;html=1;strokeColor=none;fillColor=none;align=center;verticalAlign=middle;whiteSpace=wrap;rounded=0;" vertex="1" parent="1">
          <mxGeometry x="680" y="530" width="40" height="20" as="geometry" />
        </mxCell>
        <mxCell id="UY2LYeUdsEFokPWbuL1_-87" value="" style="endArrow=none;dashed=1;html=1;entryX=0;entryY=0.5;entryDx=0;entryDy=0;" edge="1" parent="1" target="UY2LYeUdsEFokPWbuL1_-85">
          <mxGeometry width="50" height="50" relative="1" as="geometry">
            <mxPoint x="320" y="530" as="sourcePoint" />
            <mxPoint x="960" y="420" as="targetPoint" />
            <Array as="points" />
          </mxGeometry>
        </mxCell>
      </root>
    </mxGraphModel>
  </diagram>
</mxfile>
